<svg width="96" height="96" viewBox="0 0 96 96" fill="none"
  xmlns="http://www.w3.org/2000/svg">
  <g filter="url(#filter0_d_193_1927)">
    <circle cx="48" cy="48" r="40" fill="url(#paint0_linear_193_1927)" fill-opacity="0.3" shape-rendering="crispEdges"/>
  </g>
  <circle cx="48" cy="48" r="35" fill="url(#paint1_linear_193_1927)" fill-opacity="0.6"/>
  <circle cx="48" cy="48" r="30" fill="url(#paint2_linear_193_1927)"/>
  <path d="M48.4462 49.5274H56.6474C56.8222 49.5274 56.9048 49.5274 56.9174 49.2982C56.9844 48.4639 56.9844 47.6248 56.9174 46.7895C56.9174 46.6273 56.8368 46.5603 56.661 46.5603H40.3393C40.1373 46.5603 40.0829 46.6273 40.0829 46.8167V49.2176C40.0829 49.5274 40.0829 49.5274 40.4063 49.5274H48.4462ZM56.0015 43.7544C56.0248 43.6932 56.0248 43.6262 56.0015 43.566C55.8646 43.2678 55.7024 42.9832 55.514 42.7161C55.2304 42.2596 54.8962 41.8391 54.5155 41.4613C54.3358 41.233 54.128 41.0281 53.8949 40.8543C52.7275 39.8607 51.3396 39.1575 49.8477 38.804C49.095 38.635 48.3258 38.5544 47.5546 38.5612H40.3111C40.1091 38.5612 40.0819 38.6418 40.0819 38.8176V43.6058C40.0819 43.8078 40.0819 43.8622 40.3383 43.8622H55.9044C55.9044 43.8622 56.0394 43.835 56.0666 43.7544H56.0005H56.0015ZM56.0015 52.3334C55.7723 52.3081 55.5412 52.3081 55.3119 52.3334H40.3529C40.1509 52.3334 40.0829 52.3334 40.0829 52.6034V57.2847C40.0829 57.5004 40.0829 57.5548 40.3529 57.5548H47.2594C47.5896 57.58 47.9198 57.5567 48.2432 57.4877C49.2456 57.4159 50.2314 57.1983 51.1715 56.8399C51.5134 56.7214 51.8436 56.567 52.1554 56.3815H52.2496C53.8687 55.5394 55.1837 54.2166 56.0132 52.5927C56.0132 52.5927 56.1074 52.3887 56.0015 52.3353V52.3334ZM37.3721 59.9819V59.9013V56.7583V55.6929V52.5228C37.3721 52.347 37.3721 52.3207 37.1565 52.3207H34.2292C34.067 52.3207 34 52.3207 34 52.1051V49.542H37.1293C37.3042 49.542 37.3721 49.542 37.3721 49.3128V46.7769C37.3721 46.6147 37.3721 46.5749 37.1565 46.5749H34.2292C34.067 46.5749 34 46.5749 34 46.3593V43.9855C34 43.8369 34 43.7971 34.2156 43.7971H37.1157C37.3178 43.7971 37.3721 43.7971 37.3721 43.5407V36.27C37.3721 36.0544 37.3721 36 37.6422 36H47.7586C48.4929 36.0291 49.2223 36.1098 49.9439 36.2428C51.4309 36.5177 52.8596 37.0489 54.1659 37.8075C55.0322 38.3174 55.8296 38.9331 56.5396 39.6422C57.0738 40.1967 57.5555 40.797 57.9829 41.436C58.4073 42.0839 58.7598 42.7763 59.0367 43.4999C59.0706 43.6883 59.2513 43.8156 59.4397 43.7835H61.8542C62.164 43.7835 62.164 43.7835 62.1776 44.0807V46.2932C62.1776 46.5088 62.097 46.5632 61.8804 46.5632H60.0186C59.8302 46.5632 59.7758 46.5632 59.7894 46.806C59.8632 47.6277 59.8632 48.4523 59.7894 49.274C59.7894 49.5032 59.7894 49.5304 60.0467 49.5304H62.1767C62.2709 49.6518 62.1767 49.7732 62.1767 49.8955C62.1903 50.0519 62.1903 50.2102 62.1767 50.3666V51.9993C62.1767 52.2285 62.1097 52.2965 61.9067 52.2965H59.3572C59.1794 52.2625 59.0065 52.3761 58.9657 52.5529C58.3587 54.1311 57.3875 55.5462 56.1326 56.6806C55.6742 57.0934 55.1925 57.4819 54.6894 57.8403C54.1494 58.1511 53.6239 58.4745 53.0703 58.7309C52.0515 59.1894 50.9831 59.5273 49.8866 59.742C48.8454 59.9285 47.7897 60.013 46.7301 59.9984H37.3683V59.9848L37.3721 59.9819Z" fill="#FEFEFD"/>
  <defs>
    <filter id="filter0_d_193_1927" x="0" y="0" width="96" height="96" filterUnits="userSpaceOnUse" color-interpolation-filters="sRGB">
      <feFlood flood-opacity="0" result="BackgroundImageFix"/>
      <feColorMatrix in="SourceAlpha" type="matrix" values="0 0 0 0 0 0 0 0 0 0 0 0 0 0 0 0 0 0 127 0" result="hardAlpha"/>
      <feOffset/>
      <feGaussianBlur stdDeviation="4"/>
      <feComposite in2="hardAlpha" operator="out"/>
      <feColorMatrix type="matrix" values="0 0 0 0 0.960784 0 0 0 0 0.67451 0 0 0 0 0.215686 0 0 0 0.24 0"/>
      <feBlend mode="normal" in2="BackgroundImageFix" result="effect1_dropShadow_193_1927"/>
      <feBlend mode="normal" in="SourceGraphic" in2="effect1_dropShadow_193_1927" result="shape"/>
    </filter>
    <linearGradient id="paint0_linear_193_1927" x1="22.5455" y1="19.8182" x2="74.3636" y2="78.9091" gradientUnits="userSpaceOnUse">
      <stop stop-color="#F5AC37" stop-opacity="0.08"/>
      <stop offset="1" stop-color="#F5AC37"/>
    </linearGradient>
    <linearGradient id="paint1_linear_193_1927" x1="25.7273" y1="23.3409" x2="71.0682" y2="75.0455" gradientUnits="userSpaceOnUse">
      <stop stop-color="#F5AC37" stop-opacity="0.08"/>
      <stop offset="1" stop-color="#F5AC37"/>
    </linearGradient>
    <linearGradient id="paint2_linear_193_1927" x1="28.9091" y1="26.8636" x2="67.7727" y2="71.1818" gradientUnits="userSpaceOnUse">
      <stop stop-color="#F5AC37" stop-opacity="0.08"/>
      <stop offset="1" stop-color="#F5AC37"/>
    </linearGradient>
  </defs>
</svg>
