<svg width="65" height="65" viewBox="0 0 65 65" fill="none"
  xmlns="http://www.w3.org/2000/svg">
  <g filter="url(#filter0_d_2059_15684)">
    <circle cx="32.667" cy="32.5" r="24" fill="url(#paint0_linear_2059_15684)" fill-opacity="0.3" shape-rendering="crispEdges"/>
  </g>
  <circle cx="32.667" cy="32.5" r="21" fill="url(#paint1_linear_2059_15684)" fill-opacity="0.6"/>
  <circle cx="32.667" cy="32.5" r="18" fill="url(#paint2_linear_2059_15684)"/>
  <path d="M26.6746 26.3953C26.2166 26.8815 25.8388 27.2905 25.8349 27.2982C25.8311 27.3098 26.2433 27.7189 26.751 28.2051C27.2586 28.6951 27.7013 29.1235 27.7319 29.1505L27.7891 29.2045L27.6861 29.3782C26.7815 30.8908 26.5945 32.7122 27.1632 34.387C27.2701 34.7034 27.4533 35.1086 27.6097 35.3749C27.6861 35.5061 27.7204 35.591 27.7128 35.6064C27.7052 35.6218 27.2433 36.1158 26.6861 36.7062C26.1288 37.2927 25.6746 37.7828 25.667 37.7905C25.6632 37.8021 27.2242 39.3264 27.3731 39.4498L27.4304 39.5L28.312 38.57C28.7968 38.0568 29.251 37.5744 29.3197 37.5011L29.4494 37.3699L29.5716 37.4471C30.1937 37.8484 30.9227 38.1262 31.7281 38.2729C32.1326 38.3462 32.9036 38.3655 33.3349 38.3115C34.167 38.215 34.9914 37.9333 35.667 37.5204L35.8426 37.4123L36.0296 37.5976C36.438 37.9989 37.9647 39.4653 37.98 39.473C37.9952 39.4807 39.6708 37.7095 39.667 37.6863C39.6632 37.6748 38.5143 36.5595 37.812 35.892L37.5792 35.6681L37.6861 35.4906C38.583 33.9818 38.77 32.1527 38.1899 30.4664C38.1059 30.2194 37.8502 29.6637 37.7013 29.409L37.6288 29.2817L38.6097 28.2437C39.1479 27.6764 39.5868 27.2018 39.583 27.1902C39.5677 27.1516 37.8502 25.5116 37.8273 25.5116C37.812 25.5116 37.3807 25.9553 36.8655 26.5033C36.3502 27.0474 35.9227 27.495 35.9113 27.4989C35.9036 27.5028 35.854 27.4796 35.8082 27.4449C35.6784 27.3561 35.3502 27.1748 35.167 27.0899C34.6097 26.8313 34.0907 26.6731 33.4876 26.5843C33.1746 26.538 32.2357 26.5303 31.9456 26.5728C31.251 26.6731 30.6823 26.8467 30.1021 27.14C29.9342 27.2211 29.7395 27.3291 29.6632 27.3754L29.5258 27.4603L29.3693 27.306C29.2853 27.2211 28.9036 26.8583 28.5258 26.4917C28.1479 26.129 27.7624 25.7585 27.6708 25.6659L27.5029 25.5L26.6746 26.3953ZM33.083 28.9112C33.6899 28.9846 34.2319 29.1929 34.7319 29.548C34.9876 29.7293 35.3693 30.1152 35.5487 30.3738C36.5678 31.8324 36.3731 33.8159 35.0907 35.0314C33.9952 36.0656 32.4113 36.2971 31.0792 35.6103C30.1174 35.1125 29.438 34.2018 29.2204 33.1097C29.1517 32.7624 29.1517 32.1141 29.2204 31.7707C29.2853 31.4311 29.3731 31.188 29.5372 30.8484C30.1937 29.5132 31.6174 28.7337 33.083 28.9112Z" fill="white"/>
  <defs>
    <filter id="filter0_d_2059_15684" x="0.666992" y="0.5" width="64" height="64" filterUnits="userSpaceOnUse" color-interpolation-filters="sRGB">
      <feFlood flood-opacity="0" result="BackgroundImageFix"/>
      <feColorMatrix in="SourceAlpha" type="matrix" values="0 0 0 0 0 0 0 0 0 0 0 0 0 0 0 0 0 0 127 0" result="hardAlpha"/>
      <feOffset/>
      <feGaussianBlur stdDeviation="4"/>
      <feComposite in2="hardAlpha" operator="out"/>
      <feColorMatrix type="matrix" values="0 0 0 0 0 0 0 0 0 0 0 0 0 0 0 0 0 0 0.24 0"/>
      <feBlend mode="normal" in2="BackgroundImageFix" result="effect1_dropShadow_2059_15684"/>
      <feBlend mode="normal" in="SourceGraphic" in2="effect1_dropShadow_2059_15684" result="shape"/>
    </filter>
    <linearGradient id="paint0_linear_2059_15684" x1="17.3943" y1="15.5909" x2="48.4852" y2="51.0455" gradientUnits="userSpaceOnUse">
      <stop stop-opacity="0.08"/>
      <stop offset="1"/>
    </linearGradient>
    <linearGradient id="paint1_linear_2059_15684" x1="19.3034" y1="17.7045" x2="46.5079" y2="48.7273" gradientUnits="userSpaceOnUse">
      <stop stop-opacity="0.08"/>
      <stop offset="1"/>
    </linearGradient>
    <linearGradient id="paint2_linear_2059_15684" x1="21.2124" y1="19.8182" x2="44.5306" y2="46.4091" gradientUnits="userSpaceOnUse">
      <stop stop-opacity="0.08"/>
      <stop offset="1"/>
    </linearGradient>
  </defs>
</svg>
