<svg width="65" height="65" viewBox="0 0 65 65" fill="none"
  xmlns="http://www.w3.org/2000/svg">
  <g filter="url(#filter0_d_2059_17314)">
    <circle cx="32.3334" cy="32.5151" r="24" fill="url(#paint0_linear_2059_17314)" fill-opacity="0.3" shape-rendering="crispEdges"/>
  </g>
  <circle cx="32.3334" cy="32.5151" r="21" fill="url(#paint1_linear_2059_17314)" fill-opacity="0.6"/>
  <circle cx="32.3334" cy="32.5151" r="18" fill="url(#paint2_linear_2059_17314)"/>
  <path d="M26.341 26.4104C25.883 26.8966 25.5051 27.3057 25.5013 27.3134C25.4975 27.3249 25.9097 27.734 26.4173 28.2202C26.925 28.7103 27.3677 29.1386 27.3983 29.1656L27.4555 29.2197L27.3525 29.3933C26.4479 30.906 26.2609 32.7274 26.8296 34.4021C26.9364 34.7186 27.1196 35.1237 27.2761 35.39C27.3525 35.5212 27.3868 35.6061 27.3792 35.6215C27.3715 35.637 26.9097 36.1309 26.3525 36.7213C25.7952 37.3079 25.341 37.7979 25.3334 37.8057C25.3296 37.8172 26.8906 39.3415 27.0395 39.465L27.0967 39.5151L27.9784 38.5851C28.4631 38.0719 28.9173 37.5896 28.986 37.5162L29.1158 37.385L29.238 37.4622C29.8601 37.8635 30.5891 38.1414 31.3944 38.288C31.799 38.3613 32.57 38.3806 33.0013 38.3266C33.8334 38.2301 34.6578 37.9484 35.3334 37.5355L35.5089 37.4275L35.696 37.6127C36.1044 38.014 37.6311 39.4804 37.6463 39.4881C37.6616 39.4958 39.3372 37.7246 39.3334 37.7015C39.3295 37.6899 38.1807 36.5747 37.4784 35.9071L37.2456 35.6833L37.3525 35.5058C38.2494 33.9969 38.4364 32.1678 37.8563 30.4815C37.7723 30.2345 37.5166 29.6789 37.3677 29.4242L37.2952 29.2968L38.2761 28.2588C38.8143 27.6915 39.2532 27.2169 39.2494 27.2053C39.2341 27.1667 37.5166 25.5267 37.4937 25.5267C37.4784 25.5267 37.0471 25.9705 36.5318 26.5184C36.0166 27.0625 35.5891 27.5102 35.5776 27.514C35.57 27.5179 35.5204 27.4947 35.4746 27.46C35.3448 27.3713 35.0166 27.1899 34.8334 27.105C34.2761 26.8464 33.757 26.6882 33.154 26.5995C32.841 26.5532 31.9021 26.5455 31.612 26.5879C30.9173 26.6882 30.3486 26.8619 29.7685 27.1552C29.6006 27.2362 29.4059 27.3442 29.3296 27.3906L29.1922 27.4754L29.0357 27.3211C28.9517 27.2362 28.57 26.8735 28.1922 26.5069C27.8143 26.1441 27.4288 25.7737 27.3372 25.6811L27.1693 25.5151L26.341 26.4104ZM32.7494 28.9264C33.3563 28.9997 33.8983 29.2081 34.3983 29.5631C34.654 29.7445 35.0357 30.1304 35.2151 30.3889C36.2341 31.8476 36.0395 33.831 34.757 35.0466C33.6616 36.0807 32.0776 36.3123 30.7456 35.6254C29.7838 35.1276 29.1044 34.2169 28.8868 33.1248C28.8181 32.7775 28.8181 32.1292 28.8868 31.7858C28.9517 31.4462 29.0395 31.2031 29.2036 30.8635C29.8601 29.5284 31.2838 28.7489 32.7494 28.9264Z" fill="white"/>
  <defs>
    <filter id="filter0_d_2059_17314" x="0.333374" y="0.515137" width="64" height="64" filterUnits="userSpaceOnUse" color-interpolation-filters="sRGB">
      <feFlood flood-opacity="0" result="BackgroundImageFix"/>
      <feColorMatrix in="SourceAlpha" type="matrix" values="0 0 0 0 0 0 0 0 0 0 0 0 0 0 0 0 0 0 127 0" result="hardAlpha"/>
      <feOffset/>
      <feGaussianBlur stdDeviation="4"/>
      <feComposite in2="hardAlpha" operator="out"/>
      <feColorMatrix type="matrix" values="0 0 0 0 0 0 0 0 0 0 0 0 0 0 0 0 0 0 0.24 0"/>
      <feBlend mode="normal" in2="BackgroundImageFix" result="effect1_dropShadow_2059_17314"/>
      <feBlend mode="normal" in="SourceGraphic" in2="effect1_dropShadow_2059_17314" result="shape"/>
    </filter>
    <linearGradient id="paint0_linear_2059_17314" x1="17.0606" y1="15.606" x2="48.1516" y2="51.0606" gradientUnits="userSpaceOnUse">
      <stop stop-opacity="0.08"/>
      <stop offset="1"/>
    </linearGradient>
    <linearGradient id="paint1_linear_2059_17314" x1="18.9697" y1="17.7197" x2="46.1743" y2="48.7424" gradientUnits="userSpaceOnUse">
      <stop stop-opacity="0.08"/>
      <stop offset="1"/>
    </linearGradient>
    <linearGradient id="paint2_linear_2059_17314" x1="20.8788" y1="19.8333" x2="44.197" y2="46.4242" gradientUnits="userSpaceOnUse">
      <stop stop-opacity="0.08"/>
      <stop offset="1"/>
    </linearGradient>
  </defs>
</svg>
