<svg fill="none"
  xmlns="http://www.w3.org/2000/svg"
  xmlns:xlink="http://www.w3.org/1999/xlink" viewBox="20 20 80 80">
  <g filter="url(#filter0_d_192_3039)">
    <circle cx="60" cy="60" r="40" fill="url(#paint0_linear_192_3039)" fill-opacity="0.3" shape-rendering="crispEdges"></circle>
  </g>
  <circle cx="60" cy="60" r="35" fill="url(#paint1_linear_192_3039)" fill-opacity="0.6"></circle>
  <circle cx="60" cy="60" r="30" fill="url(#paint2_linear_192_3039)"></circle>
  <path fill-rule="evenodd" clip-rule="evenodd" d="M46 48.3933C46.1088 49.5355 46.1795 50.64 46.1795 51.7822V65.4171H48.856H51.5326V55.8122C51.5326 54.6 51.5326 51.7445 54.8836 51.7445C57.8322 51.7445 57.8702 54.3144 57.8702 55.7045V65.4171H63.2342V57.3801C63.2342 54.7024 63.3049 51.7445 66.5091 51.7445C69.2835 51.7445 69.5718 53.8834 69.5718 55.8122V65.4171H74.9357V56.2379C74.9357 56.1341 74.9361 56.0277 74.9364 55.919C74.9412 54.3847 74.9475 52.3897 74.0381 50.9256C73.6465 50.2144 72.1668 48.0377 68.4947 48.0377C66.6233 48.0377 64.1753 48.5011 62.6629 51.3889C62.3039 50.5322 61.118 48 56.94 48C53.3258 48 51.9178 49.9078 51.3353 50.6972L51.3258 50.71L51.1463 48.3933H46ZM74.9372 68.0229H46.1372V72H74.9372V68.0229Z" fill="url(#paint3_linear_192_3039)"></path>
  <defs>
    <filter id="filter0_d_192_3039" x="12" y="12" width="96" height="96" filterUnits="userSpaceOnUse" color-interpolation-filters="sRGB">
      <feFlood flood-opacity="0" result="BackgroundImageFix"></feFlood>
      <feColorMatrix in="SourceAlpha" type="matrix" values="0 0 0 0 0 0 0 0 0 0 0 0 0 0 0 0 0 0 127 0" result="hardAlpha"></feColorMatrix>
      <feOffset></feOffset>
      <feGaussianBlur stdDeviation="4"></feGaussianBlur>
      <feComposite in2="hardAlpha" operator="out"></feComposite>
      <feColorMatrix type="matrix" values="0 0 0 0 0.0392157 0 0 0 0 0.0627451 0 0 0 0 0.172549 0 0 0 0.24 0"></feColorMatrix>
      <feBlend mode="normal" in2="BackgroundImageFix" result="effect1_dropShadow_192_3039"></feBlend>
      <feBlend mode="normal" in="SourceGraphic" in2="effect1_dropShadow_192_3039" result="shape"></feBlend>
    </filter>
    <linearGradient id="paint0_linear_192_3039" x1="34.5455" y1="31.8182" x2="86.3636" y2="90.9091" gradientUnits="userSpaceOnUse">
      <stop stop-color="#0A102C" stop-opacity="0.08"></stop>
      <stop offset="1" stop-color="#0A102C"></stop>
    </linearGradient>
    <linearGradient id="paint1_linear_192_3039" x1="37.7273" y1="35.3409" x2="83.0682" y2="87.0455" gradientUnits="userSpaceOnUse">
      <stop stop-color="#0A102C" stop-opacity="0.08"></stop>
      <stop offset="1" stop-color="#0A102C"></stop>
    </linearGradient>
    <linearGradient id="paint2_linear_192_3039" x1="40.9091" y1="38.8636" x2="79.7727" y2="83.1818" gradientUnits="userSpaceOnUse">
      <stop stop-color="#0A102C" stop-opacity="0.08"></stop>
      <stop offset="1" stop-color="#0A102C"></stop>
    </linearGradient>
    <linearGradient id="paint3_linear_192_3039" x1="46" y1="48" x2="78" y2="72" gradientUnits="userSpaceOnUse">
      <stop stop-color="#EAEBFF"></stop>
      <stop offset="1" stop-color="#F8FAFF" stop-opacity="0.4"></stop>
    </linearGradient>
  </defs>
</svg>