<svg width="120" height="120" viewBox="0 0 96 96" fill="none"
  xmlns="http://www.w3.org/2000/svg">
  <g filter="url(#filter0_d_193_1960)">
    <circle cx="48" cy="48" r="40" fill="url(#paint0_linear_193_1960)" fill-opacity="0.3" shape-rendering="crispEdges"/>
  </g>
  <circle cx="48" cy="48" r="35" fill="url(#paint1_linear_193_1960)" fill-opacity="0.6"/>
  <circle cx="48" cy="48" r="30" fill="url(#paint2_linear_193_1960)"/>
  <path fill-rule="evenodd" clip-rule="evenodd" d="M37.9255 43.7427C35.83 49.3064 38.7203 55.5926 44.3561 57.6156C44.5729 57.7602 44.7897 58.0491 44.7897 58.2659V59.2776C44.7897 59.422 44.7897 59.4943 44.7173 59.5665C44.6452 59.8556 44.3561 60 44.0671 59.8556C40.0209 58.555 36.9138 55.448 35.6133 51.4018C33.4456 44.5376 37.2029 37.2398 44.0671 35.0721C44.1394 35 44.2838 35 44.3561 35C44.6452 35.0721 44.7897 35.2889 44.7897 35.578V36.5895C44.7897 36.9509 44.6452 37.1676 44.3561 37.3121C41.3937 38.3959 39.0093 40.708 37.9255 43.7427ZM51.3649 35.3612C51.437 35.0721 51.7261 34.9277 52.0152 35.0721C55.9891 36.3727 59.1684 39.4797 60.469 43.5982C62.6366 50.4624 58.8793 57.7602 52.0152 59.9279C51.9429 60 51.7984 60 51.7261 60C51.437 59.9279 51.2926 59.7111 51.2926 59.422V58.4105C51.2926 58.0491 51.437 57.8324 51.7261 57.6879C54.6885 56.6041 57.0729 54.292 58.1567 51.2573C60.2522 45.6936 57.362 39.4074 51.7261 37.3844C51.5093 37.2398 51.2926 36.9509 51.2926 36.6618V35.6503C51.2926 35.5057 51.2926 35.4335 51.3649 35.3612ZM48.2579 46.2717C51.2925 46.6329 52.8099 47.5 52.8099 50.0289C52.8099 51.9797 51.3649 53.4971 49.1972 53.8585V55.5926C49.1249 55.9538 48.9081 56.1706 48.6191 56.1706H47.5352C47.174 56.0982 46.9573 55.8815 46.9573 55.5926V53.8585C44.5729 53.4971 43.4167 52.1965 43.1278 50.3902V50.3179C43.1278 50.0289 43.3446 49.8121 43.6335 49.8121H44.8619C45.0787 49.8121 45.2955 49.9567 45.3676 50.2456C45.5844 51.3294 46.2347 52.1244 48.1134 52.1244C49.4861 52.1244 50.4978 51.3296 50.4978 50.1735C50.4978 49.0173 49.8475 48.5838 47.8243 48.2226C44.7896 47.8612 43.3446 46.922 43.3446 44.5376C43.3446 42.7312 44.7173 41.2862 46.885 40.9971V39.3353C46.9573 38.9739 47.174 38.7571 47.4631 38.7571H48.5469C48.9081 38.8294 49.1249 39.0462 49.1249 39.3353V41.0694C50.7867 41.2138 52.0873 42.4421 52.3764 44.0318V44.1041C52.3764 44.393 52.1596 44.6098 51.8705 44.6098H50.7146C50.4978 44.6098 50.281 44.4653 50.2087 44.2485C49.8475 43.1647 49.1249 42.7312 47.8243 42.7312C46.3793 42.7312 45.6567 43.3813 45.6567 44.393C45.6567 45.4047 46.0902 45.9826 48.2579 46.2717Z" fill="white"/>
  <defs>
    <filter id="filter0_d_193_1960" x="0" y="0" width="96" height="96" filterUnits="userSpaceOnUse" color-interpolation-filters="sRGB">
      <feFlood flood-opacity="0" result="BackgroundImageFix"/>
      <feColorMatrix in="SourceAlpha" type="matrix" values="0 0 0 0 0 0 0 0 0 0 0 0 0 0 0 0 0 0 127 0" result="hardAlpha"/>
      <feOffset/>
      <feGaussianBlur stdDeviation="4"/>
      <feComposite in2="hardAlpha" operator="out"/>
      <feColorMatrix type="matrix" values="0 0 0 0 0.152941 0 0 0 0 0.458824 0 0 0 0 0.792157 0 0 0 0.24 0"/>
      <feBlend mode="normal" in2="BackgroundImageFix" result="effect1_dropShadow_193_1960"/>
      <feBlend mode="normal" in="SourceGraphic" in2="effect1_dropShadow_193_1960" result="shape"/>
    </filter>
    <linearGradient id="paint0_linear_193_1960" x1="22.5455" y1="19.8182" x2="74.3636" y2="78.9091" gradientUnits="userSpaceOnUse">
      <stop stop-color="#2775CA" stop-opacity="0.08"/>
      <stop offset="1" stop-color="#2775CA"/>
    </linearGradient>
    <linearGradient id="paint1_linear_193_1960" x1="25.7273" y1="23.3409" x2="71.0682" y2="75.0455" gradientUnits="userSpaceOnUse">
      <stop stop-color="#2775CA" stop-opacity="0.08"/>
      <stop offset="1" stop-color="#2775CA"/>
    </linearGradient>
    <linearGradient id="paint2_linear_193_1960" x1="28.9091" y1="26.8636" x2="67.7727" y2="71.1818" gradientUnits="userSpaceOnUse">
      <stop stop-color="#2775CA" stop-opacity="0.08"/>
      <stop offset="1" stop-color="#2775CA"/>
    </linearGradient>
  </defs>
</svg>
