<svg width="80" height="80" viewBox="0 0 80 80" fill="none" xmlns="http://www.w3.org/2000/svg">
<g filter="url(#filter0_d_2059_16987)">
<circle cx="40" cy="40" r="32" fill="url(#paint0_linear_2059_16987)" fill-opacity="0.3" shape-rendering="crispEdges"/>
</g>
<circle cx="40" cy="40" r="28" fill="url(#paint1_linear_2059_16987)" fill-opacity="0.6"/>
<circle cx="40" cy="40" r="24" fill="url(#paint2_linear_2059_16987)"/>
<path fill-rule="evenodd" clip-rule="evenodd" d="M31.9404 36.5943C30.264 41.0452 32.5762 46.0742 37.0849 47.6926C37.2583 47.8083 37.4317 48.0394 37.4317 48.2128V49.0222C37.4317 49.1377 37.4317 49.1956 37.3739 49.2533C37.3161 49.4845 37.0849 49.6001 36.8536 49.4845C33.6167 48.4441 31.131 45.9585 30.0906 42.7215C28.3565 37.2302 31.3623 31.3919 36.8536 29.6578C36.9115 29.6001 37.027 29.6001 37.0849 29.6001C37.3161 29.6578 37.4317 29.8312 37.4317 30.0625V30.8717C37.4317 31.1608 37.3161 31.3342 37.0849 31.4498C34.715 32.3168 32.8075 34.1665 31.9404 36.5943ZM42.6919 29.8891C42.7496 29.6578 42.9809 29.5422 43.2121 29.6578C46.3912 30.6983 48.9347 33.1839 49.9752 36.4787C51.7093 41.97 48.7034 47.8083 43.2121 49.5424C43.1543 49.6001 43.0387 49.6001 42.9809 49.6001C42.7496 49.5424 42.634 49.369 42.634 49.1377V48.3285C42.634 48.0394 42.7496 47.866 42.9809 47.7504C45.3508 46.8834 47.2583 45.0337 48.1254 42.6059C49.8018 38.155 47.4896 33.126 42.9809 31.5076C42.8075 31.3919 42.634 31.1608 42.634 30.9295V30.1203C42.634 30.0046 42.634 29.9469 42.6919 29.8891ZM40.2063 38.6175C42.634 38.9065 43.8479 39.6001 43.8479 41.6232C43.8479 43.1839 42.6919 44.3978 40.9578 44.6869V46.0742C40.8999 46.3631 40.7265 46.5365 40.4952 46.5365H39.6282C39.3392 46.4787 39.1658 46.3053 39.1658 46.0742V44.6869C37.2583 44.3978 36.3334 43.3573 36.1022 41.9123V41.8544C36.1022 41.6232 36.2756 41.4498 36.5068 41.4498H37.4895C37.6629 41.4498 37.8363 41.5655 37.8941 41.7966C38.0675 42.6636 38.5877 43.2996 40.0907 43.2996C41.1889 43.2996 41.9982 42.6638 41.9982 41.7389C41.9982 40.814 41.478 40.4672 39.8594 40.1782C37.4317 39.8891 36.2756 39.1377 36.2756 37.2302C36.2756 35.785 37.3738 34.629 39.1079 34.3978V33.0683C39.1658 32.7792 39.3392 32.6058 39.5705 32.6058H40.4375C40.7265 32.6636 40.8999 32.8371 40.8999 33.0683V34.4556C42.2293 34.5712 43.2698 35.5538 43.5011 36.8255V36.8834C43.5011 37.1145 43.3277 37.2879 43.0964 37.2879H42.1716C41.9982 37.2879 41.8248 37.1723 41.767 36.9989C41.478 36.1319 40.8999 35.785 39.8594 35.785C38.7034 35.785 38.1253 36.3051 38.1253 37.1145C38.1253 37.9238 38.4721 38.3862 40.2063 38.6175Z" fill="white"/>
<defs>
<filter id="filter0_d_2059_16987" x="0" y="0" width="80" height="80" filterUnits="userSpaceOnUse" color-interpolation-filters="sRGB">
<feFlood flood-opacity="0" result="BackgroundImageFix"/>
<feColorMatrix in="SourceAlpha" type="matrix" values="0 0 0 0 0 0 0 0 0 0 0 0 0 0 0 0 0 0 127 0" result="hardAlpha"/>
<feOffset/>
<feGaussianBlur stdDeviation="4"/>
<feComposite in2="hardAlpha" operator="out"/>
<feColorMatrix type="matrix" values="0 0 0 0 0.152941 0 0 0 0 0.458824 0 0 0 0 0.792157 0 0 0 0.24 0"/>
<feBlend mode="normal" in2="BackgroundImageFix" result="effect1_dropShadow_2059_16987"/>
<feBlend mode="normal" in="SourceGraphic" in2="effect1_dropShadow_2059_16987" result="shape"/>
</filter>
<linearGradient id="paint0_linear_2059_16987" x1="19.6364" y1="17.4545" x2="61.0909" y2="64.7273" gradientUnits="userSpaceOnUse">
<stop stop-color="#2775CA" stop-opacity="0.08"/>
<stop offset="1" stop-color="#2775CA"/>
</linearGradient>
<linearGradient id="paint1_linear_2059_16987" x1="22.1818" y1="20.2727" x2="58.4545" y2="61.6364" gradientUnits="userSpaceOnUse">
<stop stop-color="#2775CA" stop-opacity="0.08"/>
<stop offset="1" stop-color="#2775CA"/>
</linearGradient>
<linearGradient id="paint2_linear_2059_16987" x1="24.7273" y1="23.0909" x2="55.8182" y2="58.5455" gradientUnits="userSpaceOnUse">
<stop stop-color="#2775CA" stop-opacity="0.08"/>
<stop offset="1" stop-color="#2775CA"/>
</linearGradient>
</defs>
</svg>
