<svg version="1.0" id="katman_1"
  xmlns="http://www.w3.org/2000/svg"
  xmlns:xlink="http://www.w3.org/1999/xlink" x="0px" y="0px" style="enable-background:new 0 0 600 450;" xml:space="preserve" viewBox="155.3 65.3 289.8 320.2">
  <style type="text/css"> 	.st0{fill:#5C4B9A;} </style>
  <path class="st0" d="M421.7,128.4l-98.4-56.9c-7.1-4-15-6.2-23.2-6.2c-8.1,0-16.1,2.1-23.2,6.2l-34.6,20c8.6,2.8,16.6,7.3,23.5,13.2 	l22.7-13.1c3.5-2,7.5-3.1,11.6-3.1c4.1,0,8.1,1.1,11.6,3.1l33.9,19.6l-47,42.5l11.9,20.5l56.2-50.9l43.4,25.1c3.5,2,6.4,5,8.5,8.5 	c2,3.5,3.1,7.5,3.1,11.6v43.8l-74.1,26.3l11.8,20.4l62.3-22.1v45.3c0,4.1-1.1,8-3.1,11.5c-2,3.5-4.9,6.4-8.4,8.5c0,0,0,0-0.1,0 	c0,0-19.9,11.5-20.1,11.6c-5.3,2.8-11.5,3.5-17.2,1.9c-5.8-1.6-10.7-5.5-13.7-10.6l-98.5-170.7c-6.2-10.6-16.3-18.3-28.1-21.5 	c-11.8-3.2-24.5-1.5-35.1,4.6l-18.9,10.9l-0.1,0.1c-7,4.1-12.9,9.9-16.9,17c-4.1,7-6.2,15-6.2,23.1v113.7c0,8.1,2.2,16.1,6.2,23.1 	c4.1,7,9.9,12.9,16.9,17l98.5,56.9c7.1,4,15,6.2,23.2,6.2c8.1,0,16.1-2.1,23.2-6.2l34.3-19.8c-8.6-2.8-16.6-7.3-23.5-13.2 	l-22.4,12.9c-3.5,2-7.5,3.1-11.6,3.1s-8.1-1.1-11.6-3.1l-80.4-46.4l84.7-30.1l-11.8-20.4L194.3,293c-1.1,0.4-2.4,0.4-3.5,0 	c-1.1-0.4-2.1-1.2-2.7-2.2c-0.6-1-0.8-2.2-0.7-3.4c0.2-1.2,0.8-2.3,1.6-3.1l68.7-62.3L246,201.5l-67.5,61.1v-94.1 	c0-4.1,1.1-8.1,3.1-11.6c2-3.5,5-6.4,8.5-8.5l0.1-0.1c0,0,19.2-11.1,19.3-11.1c5.3-2.9,11.5-3.6,17.3-2c5.8,1.6,10.8,5.5,13.8,10.7 	l98.6,170.7c6.2,10.6,16.3,18.3,28.1,21.5c11.8,3.2,24.4,1.5,35.1-4.6l19.5-11.2c0,0,0,0,0.1,0c7-4.1,12.8-9.9,16.9-17 	c4.1-7,6.2-15,6.2-23.1V168.5c0-8.1-2.2-16.1-6.2-23.1C434.6,138.3,428.8,132.5,421.7,128.4z"></path>
</svg>