<svg fill="none"
  xmlns="http://www.w3.org/2000/svg" viewBox="0 0 24 24">
  <g clip-path="url(#clip0_2546_30139)">
    <path fill-rule="evenodd" clip-rule="evenodd" d="M7 3C4.79086 3 3 4.79086 3 7V18C3 20.2091 4.79086 22 7 22H18C20.2091 22 22 20.2091 22 18V7C22 4.79086 20.2091 3 18 3H7ZM14.9597 15.6667C15.3717 15.8889 15.8248 16 16.3191 16C16.8135 16 17.2635 15.8919 17.6691 15.6757C18.0747 15.4535 18.3979 15.1502 18.6388 14.7658C18.8796 14.3814 19 13.9429 19 13.4505C19 12.958 18.8796 12.5225 18.6388 12.1441C18.4043 11.7598 18.0842 11.4595 17.6786 11.2432C17.2793 11.021 16.8262 10.9099 16.3191 10.9099C15.8185 10.9099 15.3653 11.021 14.9597 11.2432C14.5541 11.4595 14.2309 11.7598 13.99 12.1441C13.7492 12.5225 13.6288 12.958 13.6288 13.4505C13.6288 13.9369 13.7492 14.3724 13.99 14.7568C14.2309 15.1411 14.5541 15.4444 14.9597 15.6667ZM17.1272 14.8468C16.8927 14.985 16.6234 15.0541 16.3191 15.0541C16.0213 15.0541 15.7519 14.985 15.5111 14.8468C15.2766 14.7087 15.0896 14.5195 14.9502 14.2793C14.8171 14.033 14.7506 13.7568 14.7506 13.4505C14.7506 13.1441 14.8171 12.8709 14.9502 12.6306C15.0896 12.3904 15.2766 12.2012 15.5111 12.0631C15.7519 11.9249 16.0213 11.8559 16.3191 11.8559C16.6234 11.8559 16.8927 11.9249 17.1272 12.0631C17.3617 12.2012 17.5455 12.3904 17.6786 12.6306C17.818 12.8709 17.8877 13.1441 17.8877 13.4505C17.8877 13.7568 17.818 14.033 17.6786 14.2793C17.5455 14.5195 17.3617 14.7087 17.1272 14.8468ZM14.7506 9V10.1261H15.9389V9H14.7506ZM16.6994 9V10.1261H17.8877V9H16.6994ZM8.12947 15.7387C8.56043 15.9129 9.02626 16 9.52693 16C9.9579 16 10.3698 15.9309 10.7628 15.7928C11.1557 15.6547 11.5043 15.4505 11.8085 15.1802C12.1127 14.9099 12.3536 14.5826 12.531 14.1982C12.7085 13.8078 12.7972 13.3664 12.7972 12.8739V12.2432H9.50792V13.1441H11.6849V13.1712C11.6849 13.5435 11.5867 13.8709 11.3902 14.1532C11.1938 14.4294 10.9307 14.6456 10.6012 14.8018C10.278 14.952 9.91987 15.027 9.52693 15.027C9.05794 15.027 8.64282 14.9249 8.28157 14.7207C7.92033 14.5105 7.63513 14.2192 7.42598 13.8468C7.22318 13.4685 7.12177 13.03 7.12177 12.5315C7.12177 12.033 7.22001 11.5976 7.41648 11.2252C7.61928 10.8529 7.90131 10.5616 8.26256 10.3514C8.62381 10.1411 9.03893 10.036 9.50792 10.036C9.98325 10.036 10.3889 10.1502 10.7248 10.3784C11.0607 10.6006 11.3015 10.8949 11.4473 11.2613L12.4454 10.8018C12.325 10.4955 12.1286 10.2132 11.856 9.95496C11.5835 9.69069 11.2476 9.47748 10.8483 9.31532C10.4554 9.15315 10.0086 9.07207 9.50792 9.07207C9.0009 9.07207 8.53508 9.15916 8.11046 9.33333C7.68583 9.5015 7.31507 9.74174 6.99819 10.0541C6.6813 10.3604 6.43413 10.7267 6.25668 11.1532C6.08556 11.5736 6 12.033 6 12.5315C6 13.036 6.08873 13.4985 6.26618 13.9189C6.44364 14.3393 6.69081 14.7057 7.0077 15.018C7.33092 15.3243 7.70484 15.5646 8.12947 15.7387Z" fill="currentColor"></path>
  </g>
  <defs>
    <clipPath id="clip0_2546_30139">
      <rect width="24" height="24" fill="white"></rect>
    </clipPath>
  </defs>
</svg>