<svg width="56" height="56" viewBox="0 0 56 56" fill="none"
  xmlns="http://www.w3.org/2000/svg">
  <g filter="url(#filter0_d_2423_25945)">
    <circle cx="28" cy="28" r="20" fill="url(#paint0_linear_2423_25945)" fill-opacity="0.3" shape-rendering="crispEdges"/>
  </g>
  <circle cx="28" cy="28" r="17.5" fill="url(#paint1_linear_2423_25945)" fill-opacity="0.6"/>
  <circle cx="28" cy="28" r="15" fill="url(#paint2_linear_2423_25945)"/>
  <path d="M34.8019 33.5003C33.8694 31.8938 32.3767 30.6881 30.61 30.1142C31.4568 29.6107 32.1149 28.843 32.4831 27.9292C32.8513 27.0154 32.9093 26.0059 32.6482 25.0559C32.3871 24.1059 31.8213 23.268 31.0377 22.6707C30.2542 22.0735 29.2962 21.75 28.311 21.75C27.3258 21.75 26.3678 22.0735 25.5842 22.6707C24.8007 23.268 24.2349 24.1059 23.9738 25.0559C23.7126 26.0059 23.7706 27.0154 24.1389 27.9292C24.5071 28.843 25.1651 29.6107 26.012 30.1142C24.2453 30.6881 22.7526 31.8938 21.82 33.5003C21.7742 33.5756 21.75 33.662 21.75 33.7502C21.75 33.8383 21.7742 33.9248 21.82 34.0001C21.8627 34.0767 21.9253 34.1403 22.0012 34.1843C22.077 34.2283 22.1634 34.251 22.2511 34.25H34.3709C34.4586 34.251 34.5449 34.2283 34.6208 34.1843C34.6966 34.1403 34.7592 34.0767 34.8019 34.0001C34.8477 33.9248 34.872 33.8383 34.872 33.7502C34.872 33.662 34.8477 33.5756 34.8019 33.5003Z" fill="#F8FAFF"/>
  <defs>
    <filter id="filter0_d_2423_25945" x="0" y="0" width="56" height="56" filterUnits="userSpaceOnUse" color-interpolation-filters="sRGB">
      <feFlood flood-opacity="0" result="BackgroundImageFix"/>
      <feColorMatrix in="SourceAlpha" type="matrix" values="0 0 0 0 0 0 0 0 0 0 0 0 0 0 0 0 0 0 127 0" result="hardAlpha"/>
      <feOffset/>
      <feGaussianBlur stdDeviation="4"/>
      <feComposite in2="hardAlpha" operator="out"/>
      <feColorMatrix type="matrix" values="0 0 0 0 0.615686 0 0 0 0 0.584314 0 0 0 0 1 0 0 0 0.24 0"/>
      <feBlend mode="normal" in2="BackgroundImageFix" result="effect1_dropShadow_2423_25945"/>
      <feBlend mode="normal" in="SourceGraphic" in2="effect1_dropShadow_2423_25945" result="shape"/>
    </filter>
    <linearGradient id="paint0_linear_2423_25945" x1="15.2727" y1="13.9091" x2="41.1818" y2="43.4545" gradientUnits="userSpaceOnUse">
      <stop stop-color="#9D95FF" stop-opacity="0.08"/>
      <stop offset="1" stop-color="#9D95FF"/>
    </linearGradient>
    <linearGradient id="paint1_linear_2423_25945" x1="16.8636" y1="15.6705" x2="39.5341" y2="41.5227" gradientUnits="userSpaceOnUse">
      <stop stop-color="#9D95FF" stop-opacity="0.08"/>
      <stop offset="1" stop-color="#9D95FF"/>
    </linearGradient>
    <linearGradient id="paint2_linear_2423_25945" x1="18.4545" y1="17.4318" x2="37.8864" y2="39.5909" gradientUnits="userSpaceOnUse">
      <stop stop-color="#9D95FF" stop-opacity="0.08"/>
      <stop offset="1" stop-color="#9D95FF"/>
    </linearGradient>
  </defs>
</svg>
