<svg id="svg" version="1.1"
  xmlns="http://www.w3.org/2000/svg"
  xmlns:xlink="http://www.w3.org/1999/xlink" width="400" height="398.4" viewBox="0, 0, 400,398.4">
  <g id="svgg">
    <path id="path0" d="M235.074 27.624 C 235.031 56.760,234.962 55.605,236.786 56.005 C 237.480 56.157,238.673 56.616,239.436 57.025 C 240.200 57.434,241.056 57.769,241.339 57.769 C 241.622 57.769,244.343 59.203,247.386 60.956 C 250.429 62.709,253.015 64.143,253.133 64.143 C 253.415 64.143,256.718 66.347,258.926 68.009 C 262.370 70.600,265.106 73.182,269.946 78.412 C 274.583 83.420,275.611 84.721,279.137 90.040 C 279.936 91.245,281.198 93.150,281.943 94.274 C 284.288 97.813,289.180 107.926,288.957 108.776 C 288.705 109.742,286.814 111.366,284.100 112.948 C 282.973 113.606,280.656 115.040,278.952 116.135 C 277.249 117.231,274.609 118.913,273.087 119.874 C 271.564 120.835,269.691 122.017,268.924 122.502 C 268.157 122.986,265.737 124.546,263.546 125.968 C 261.355 127.390,258.486 129.238,257.171 130.074 C 255.857 130.911,254.153 131.995,253.386 132.483 C 243.337 138.886,244.708 139.093,239.646 130.411 C 235.579 123.437,230.375 116.106,227.625 113.479 C 225.866 111.797,219.684 107.570,218.984 107.570 C 218.726 107.570,217.812 107.193,216.954 106.733 C 214.039 105.171,195.678 104.841,193.890 106.318 C 193.635 106.529,192.620 107.021,191.633 107.412 C 173.862 114.447,169.792 135.495,184.158 146.071 C 189.934 150.324,191.116 151.057,196.215 153.548 C 198.845 154.832,202.072 156.431,203.386 157.101 C 206.983 158.934,207.581 159.225,209.960 160.301 C 211.165 160.846,213.171 161.754,214.418 162.319 C 215.664 162.884,216.829 163.348,217.007 163.349 C 217.185 163.350,217.869 163.638,218.526 163.988 C 219.183 164.338,220.349 164.854,221.116 165.134 C 221.882 165.414,224.482 166.578,226.892 167.720 C 229.303 168.863,231.992 170.125,232.869 170.525 C 249.241 178.007,263.152 187.092,272.540 196.432 C 275.303 199.181,277.900 201.960,278.309 202.608 C 278.719 203.255,279.638 204.513,280.350 205.403 C 281.063 206.293,282.596 208.713,283.758 210.781 C 289.116 220.322,291.634 227.060,293.055 235.657 C 293.418 237.849,293.886 240.627,294.095 241.833 C 294.706 245.346,294.275 264.761,293.537 266.932 C 293.202 267.918,292.797 270.070,292.637 271.713 C 292.477 273.357,292.035 275.508,291.655 276.494 C 291.274 277.480,290.445 279.900,289.813 281.873 C 289.180 283.845,288.277 286.265,287.806 287.251 C 287.334 288.237,286.371 290.299,285.665 291.833 C 282.444 298.831,278.265 305.636,274.901 309.363 C 273.912 310.458,272.272 312.430,271.257 313.745 C 268.990 316.682,262.702 322.594,257.769 326.426 C 254.611 328.879,253.519 329.609,249.768 331.781 C 245.129 334.467,245.043 334.513,243.028 335.401 C 237.309 337.919,235.647 338.736,235.368 339.164 C 235.198 339.427,235.070 352.613,235.084 368.467 C 235.098 384.322,235.009 397.395,234.886 397.518 C 234.762 397.641,234.664 397.937,234.667 398.174 C 234.671 398.411,234.847 398.337,235.060 398.008 C 235.317 397.610,235.448 397.576,235.452 397.908 C 235.456 398.211,236.006 398.406,236.853 398.406 C 237.620 398.406,238.247 398.245,238.247 398.047 C 238.247 397.849,238.785 397.500,239.442 397.271 C 240.100 397.042,240.637 396.666,240.637 396.435 C 240.637 396.175,241.920 396.016,244.024 396.016 C 246.804 396.016,247.544 395.882,248.158 395.269 C 248.691 394.735,249.658 394.473,251.541 394.354 C 253.335 394.239,254.336 393.981,254.678 393.544 C 255.024 393.102,256.012 392.855,257.863 392.748 C 259.991 392.625,260.716 392.411,261.365 391.715 C 261.814 391.232,262.489 390.836,262.864 390.834 C 263.239 390.833,264.006 390.592,264.568 390.298 C 265.131 390.005,266.072 389.644,266.660 389.496 C 267.248 389.349,267.729 388.962,267.729 388.638 C 267.729 388.189,268.249 388.048,269.906 388.048 C 271.676 388.048,272.163 387.899,272.510 387.251 C 272.848 386.620,273.344 386.454,274.899 386.454 C 276.297 386.454,277.066 386.240,277.574 385.708 C 277.966 385.298,279.120 384.842,280.138 384.694 C 281.506 384.496,282.041 384.223,282.192 383.647 C 282.344 383.065,282.741 382.869,283.766 382.869 C 284.793 382.869,285.496 382.519,286.573 381.474 C 287.478 380.594,288.397 380.080,289.061 380.080 C 289.779 380.080,290.181 379.826,290.323 379.283 C 290.479 378.686,290.866 378.486,291.865 378.486 C 292.759 378.486,293.330 378.241,293.596 377.744 C 293.849 377.272,294.608 376.919,295.679 376.775 C 296.657 376.644,297.626 376.224,297.985 375.775 C 298.327 375.349,299.095 374.885,299.694 374.745 C 300.345 374.593,301.029 374.013,301.397 373.301 C 301.751 372.616,302.332 372.112,302.766 372.112 C 303.944 372.112,304.781 371.680,304.781 371.073 C 304.781 370.752,305.186 370.518,305.744 370.518 C 307.090 370.518,307.968 370.125,307.968 369.524 C 307.968 369.243,308.597 368.895,309.367 368.751 C 310.720 368.497,314.343 365.495,314.343 364.627 C 314.343 364.416,314.875 364.137,315.525 364.006 C 316.176 363.876,317.072 363.406,317.517 362.961 C 317.963 362.516,318.691 362.151,319.136 362.151 C 319.581 362.151,320.054 361.869,320.186 361.523 C 320.319 361.178,320.851 360.734,321.369 360.537 C 321.887 360.340,322.311 359.906,322.311 359.572 C 322.311 359.238,322.497 358.964,322.725 358.964 C 323.360 358.964,325.498 357.278,325.498 356.778 C 325.498 356.535,326.125 356.108,326.892 355.831 C 327.659 355.554,328.287 355.155,328.287 354.944 C 328.287 354.734,328.735 354.392,329.283 354.183 C 329.831 353.975,330.279 353.531,330.279 353.197 C 330.279 352.855,330.627 352.590,331.076 352.590 C 331.607 352.590,331.873 352.324,331.873 351.793 C 331.873 351.355,332.127 350.996,332.439 350.996 C 333.175 350.996,336.653 347.518,336.653 346.781 C 336.653 346.470,337.012 346.215,337.450 346.215 C 337.981 346.215,338.247 345.950,338.247 345.418 C 338.247 344.887,338.513 344.622,339.044 344.622 C 339.575 344.622,339.841 344.356,339.841 343.825 C 339.841 343.293,340.106 343.028,340.637 343.028 C 341.340 343.028,342.585 341.906,345.406 338.731 C 345.851 338.230,346.215 337.558,346.215 337.237 C 346.215 336.916,346.574 336.653,347.012 336.653 C 347.543 336.653,347.809 336.388,347.809 335.857 C 347.809 335.407,348.074 335.060,348.419 335.060 C 348.754 335.060,349.144 334.746,349.284 334.363 C 349.611 333.466,350.996 332.081,351.892 331.754 C 352.276 331.614,352.590 331.225,352.590 330.889 C 352.590 330.544,352.937 330.279,353.386 330.279 C 353.844 330.279,354.183 330.013,354.183 329.655 C 354.183 329.311,354.631 328.443,355.179 327.725 C 355.727 327.006,356.175 326.212,356.175 325.958 C 356.175 325.705,356.413 325.498,356.703 325.498 C 356.993 325.498,357.396 324.836,357.599 324.027 C 357.900 322.826,358.206 322.495,359.263 322.223 C 359.975 322.039,360.558 321.669,360.558 321.399 C 360.558 321.129,360.916 320.685,361.355 320.411 C 361.793 320.137,362.151 319.555,362.151 319.116 C 362.151 318.678,362.509 318.013,362.946 317.638 C 363.384 317.264,363.852 316.369,363.987 315.650 C 364.124 314.918,364.476 314.343,364.785 314.343 C 365.090 314.343,365.339 314.171,365.339 313.960 C 365.339 313.750,366.056 312.914,366.932 312.103 C 367.809 311.292,368.526 310.314,368.526 309.929 C 368.526 308.804,368.967 307.968,369.560 307.968 C 369.894 307.968,370.210 307.342,370.365 306.375 C 370.506 305.489,370.844 304.781,371.124 304.781 C 371.712 304.781,372.112 303.901,372.112 302.604 C 372.112 302.022,372.403 301.610,372.908 301.478 C 373.507 301.322,373.705 300.935,373.705 299.920 C 373.705 298.745,373.870 298.522,374.990 298.190 C 376.034 297.880,376.341 297.528,376.624 296.315 C 376.815 295.493,377.200 294.821,377.480 294.821 C 377.987 294.821,378.486 293.138,378.486 291.431 C 378.486 290.866,378.783 290.454,379.283 290.323 C 379.880 290.167,380.080 289.779,380.080 288.779 C 380.080 287.874,380.337 287.282,380.876 286.945 C 381.483 286.567,381.673 286.016,381.673 284.645 C 381.673 283.296,381.849 282.777,382.371 282.577 C 383.692 282.073,384.361 281.070,384.635 279.183 C 384.805 278.010,385.111 277.291,385.440 277.291 C 386.123 277.291,386.454 276.401,386.454 274.565 C 386.454 273.532,386.689 272.953,387.251 272.602 C 387.874 272.214,388.048 271.673,388.048 270.130 C 388.048 268.563,388.212 268.067,388.845 267.729 C 389.505 267.376,389.641 266.895,389.641 264.926 C 389.641 263.619,389.776 262.549,389.940 262.549 C 390.550 262.548,392.430 259.039,392.430 257.904 C 392.430 257.258,392.878 256.121,393.426 255.378 C 394.309 254.182,394.422 253.634,394.422 250.567 C 394.422 247.440,394.499 247.085,395.219 246.897 C 395.942 246.707,396.016 246.353,396.016 243.065 C 396.016 239.973,396.133 239.325,396.813 238.645 C 397.524 237.934,397.610 237.317,397.610 232.915 C 397.610 228.316,397.664 227.967,398.406 227.773 C 398.945 227.632,399.203 227.230,399.203 226.531 C 399.203 225.963,399.382 225.498,399.602 225.498 C 399.863 225.498,400.000 216.999,400.000 200.797 C 400.000 184.595,399.863 176.096,399.602 176.096 C 399.382 176.096,399.203 175.631,399.203 175.062 C 399.203 174.364,398.945 173.961,398.406 173.821 C 397.656 173.624,397.610 173.277,397.610 167.914 C 397.610 161.904,397.468 160.956,396.571 160.956 C 396.132 160.956,396.016 160.083,396.016 156.773 C 396.016 153.121,395.915 152.488,395.219 151.793 C 394.591 151.165,394.422 150.465,394.422 148.484 C 394.422 146.430,394.241 145.725,393.426 144.622 C 392.719 143.663,392.430 142.763,392.430 141.517 C 392.430 139.301,391.404 137.052,390.393 137.052 C 389.741 137.052,389.641 136.739,389.641 134.688 C 389.641 132.675,389.523 132.287,388.845 132.072 C 388.184 131.862,388.047 131.466,388.042 129.754 C 388.035 127.129,387.704 125.896,387.005 125.896 C 386.635 125.896,386.452 125.406,386.449 124.402 C 386.441 122.366,386.064 121.116,385.456 121.116 C 385.177 121.116,384.827 120.464,384.677 119.667 C 384.369 118.025,382.980 115.936,382.196 115.936 C 381.862 115.936,381.673 115.420,381.673 114.505 C 381.673 113.408,381.487 113.024,380.876 112.864 C 380.233 112.696,380.080 112.321,380.080 110.910 C 380.080 109.695,379.837 108.921,379.283 108.367 C 378.845 107.928,378.486 107.148,378.486 106.632 C 378.486 106.116,378.038 105.210,377.490 104.619 C 376.942 104.028,376.494 103.278,376.494 102.951 C 376.494 102.126,374.862 100.000,374.228 100.000 C 373.940 100.000,373.705 99.566,373.705 99.037 C 373.705 97.661,373.309 96.813,372.667 96.813 C 372.345 96.813,372.112 96.407,372.112 95.849 C 372.112 94.504,371.719 93.625,371.117 93.625 C 370.836 93.625,370.485 92.978,370.337 92.187 C 370.159 91.240,369.803 90.679,369.296 90.547 C 368.873 90.436,368.526 90.008,368.526 89.596 C 368.526 89.184,367.891 88.174,367.115 87.352 C 366.339 86.529,365.602 85.453,365.478 84.960 C 365.354 84.467,365.048 84.062,364.797 84.061 C 364.547 84.059,364.135 83.656,363.882 83.164 C 363.628 82.673,362.949 81.330,362.372 80.179 C 361.795 79.029,361.172 78.088,360.987 78.088 C 360.802 78.088,360.557 77.728,360.442 77.288 C 360.311 76.788,359.771 76.397,359.001 76.242 C 358.231 76.088,357.769 75.753,357.768 75.349 C 357.768 74.993,357.320 74.180,356.772 73.544 C 356.225 72.907,355.777 72.145,355.777 71.850 C 355.777 71.556,355.516 71.315,355.197 71.315 C 354.846 71.315,354.511 70.744,354.347 69.869 C 354.178 68.973,353.807 68.353,353.369 68.238 C 352.981 68.137,352.574 67.712,352.465 67.294 C 352.316 66.724,351.908 66.534,350.834 66.534 C 349.510 66.534,349.402 66.444,349.402 65.342 C 349.402 64.582,349.114 63.970,348.606 63.653 C 348.167 63.379,347.809 62.840,347.809 62.454 C 347.809 62.019,347.507 61.753,347.012 61.753 C 346.481 61.753,346.215 61.487,346.215 60.956 C 346.215 60.425,345.950 60.159,345.418 60.159 C 344.980 60.159,344.622 59.905,344.622 59.593 C 344.622 58.857,341.143 55.378,340.407 55.378 C 340.095 55.378,339.841 55.020,339.841 54.582 C 339.841 54.050,339.575 53.785,339.044 53.785 C 338.513 53.785,338.247 53.519,338.247 52.988 C 338.247 52.473,337.981 52.191,337.497 52.191 C 337.081 52.191,336.653 51.835,336.538 51.394 C 336.378 50.784,335.995 50.598,334.898 50.598 C 333.732 50.598,333.466 50.450,333.466 49.801 C 333.466 49.363,333.108 48.645,332.669 48.207 C 332.231 47.769,331.873 47.125,331.873 46.775 C 331.873 46.426,331.520 46.048,331.089 45.936 C 330.658 45.823,330.198 45.391,330.066 44.977 C 329.934 44.562,329.643 44.223,329.418 44.223 C 329.194 44.223,328.554 43.865,327.997 43.426 C 327.440 42.988,326.745 42.629,326.452 42.629 C 325.321 42.629,322.392 40.149,322.162 38.995 C 321.954 37.955,321.372 37.606,320.190 37.811 C 320.009 37.843,319.977 37.681,320.119 37.452 C 320.262 37.219,319.744 36.771,318.944 36.437 C 318.156 36.108,317.157 35.484,316.724 35.051 C 316.291 34.617,315.578 34.263,315.139 34.263 C 314.701 34.263,314.343 34.055,314.343 33.801 C 314.343 32.941,310.679 29.955,309.309 29.698 C 308.552 29.556,307.968 29.205,307.968 28.893 C 307.968 28.589,307.565 28.215,307.072 28.062 C 306.579 27.909,305.699 27.449,305.118 27.039 C 304.536 26.630,303.812 26.295,303.508 26.295 C 303.204 26.295,302.290 25.667,301.477 24.900 C 300.663 24.133,299.623 23.506,299.165 23.506 C 298.681 23.506,298.249 23.188,298.133 22.747 C 298.004 22.251,297.433 21.893,296.491 21.716 C 295.697 21.567,294.565 21.102,293.976 20.683 C 293.387 20.263,292.371 19.920,291.718 19.920 C 290.866 19.920,290.472 19.695,290.323 19.124 C 290.164 18.517,289.779 18.327,288.710 18.327 C 287.678 18.327,287.241 18.125,287.064 17.568 C 286.801 16.739,284.607 15.538,283.355 15.538 C 282.922 15.538,282.314 15.157,282.005 14.691 C 281.589 14.065,280.900 13.791,279.367 13.644 C 278.072 13.520,277.291 13.256,277.291 12.944 C 277.291 12.342,276.034 11.965,274.004 11.958 C 272.995 11.954,272.510 11.772,272.510 11.397 C 272.510 10.662,271.628 10.359,269.489 10.359 C 268.521 10.359,267.729 10.177,267.729 9.955 C 267.729 9.451,263.682 7.570,262.598 7.570 C 262.158 7.570,261.539 7.200,261.223 6.749 C 260.796 6.139,260.046 5.867,258.312 5.693 C 256.960 5.557,255.576 5.148,255.026 4.721 C 254.264 4.130,253.372 3.984,250.527 3.984 C 247.529 3.984,246.846 3.860,246.123 3.187 C 245.405 2.518,244.717 2.390,241.819 2.390 C 238.876 2.390,238.265 2.274,237.649 1.594 C 237.253 1.155,236.520 0.797,236.021 0.797 L 235.113 0.797 235.074 27.624 M0.000 233.267 C 0.000 234.034,0.179 234.661,0.398 234.661 C 0.618 234.661,0.797 234.034,0.797 233.267 C 0.797 232.500,0.618 231.873,0.398 231.873 C 0.179 231.873,0.000 232.500,0.000 233.267 M7.767 264.545 C 7.631 264.766,7.799 265.227,8.142 265.569 C 8.707 266.134,8.765 266.097,8.765 265.168 C 8.765 264.136,8.227 263.800,7.767 264.545 M23.506 299.997 C 23.506 300.740,25.806 302.860,25.996 302.292 C 26.086 302.021,25.787 301.613,25.331 301.386 C 24.875 301.158,24.502 300.724,24.502 300.420 C 24.502 300.116,24.278 299.792,24.004 299.701 C 23.730 299.610,23.506 299.743,23.506 299.997 M30.254 311.454 C 31.295 313.265,32.143 314.054,32.381 313.434 C 32.532 313.041,32.329 312.753,31.805 312.616 C 31.310 312.486,31.108 312.222,31.286 311.934 C 31.446 311.676,31.329 311.308,31.027 311.117 C 30.147 310.560,29.821 310.702,30.254 311.454 M42.743 327.631 C 42.955 328.266,43.692 328.372,43.692 327.767 C 43.692 327.468,43.448 327.224,43.150 327.224 C 42.851 327.224,42.668 327.407,42.743 327.631 M47.809 333.865 C 48.043 334.303,48.408 334.661,48.620 334.661 C 49.252 334.661,49.054 333.570,48.374 333.310 C 47.412 332.940,47.348 333.003,47.809 333.865 M55.578 342.629 C 55.713 342.849,56.093 343.028,56.422 343.028 C 56.750 343.028,56.908 342.849,56.773 342.629 C 56.637 342.410,56.258 342.231,55.929 342.231 C 55.600 342.231,55.442 342.410,55.578 342.629 M59.055 345.095 C 59.302 345.833,60.159 345.956,60.159 345.252 C 60.159 344.905,59.875 344.622,59.529 344.622 C 59.182 344.622,58.969 344.834,59.055 345.095 M71.745 356.287 C 71.727 356.678,72.013 357.112,72.380 357.253 C 72.747 357.394,73.374 357.836,73.774 358.236 C 74.750 359.212,75.441 359.182,74.822 358.190 C 74.556 357.764,73.920 357.311,73.408 357.182 C 72.852 357.043,72.589 356.768,72.754 356.500 C 72.916 356.240,72.853 356.162,72.606 356.315 C 72.371 356.460,72.089 356.353,71.978 356.078 C 71.858 355.781,71.763 355.866,71.745 356.287 M79.481 362.548 C 79.756 362.994,81.275 363.874,81.275 363.588 C 81.275 363.487,80.993 363.122,80.649 362.777 C 79.960 362.089,79.091 361.918,79.481 362.548 M85.916 367.143 C 86.044 367.477,86.475 367.926,86.873 368.139 C 88.120 368.806,88.206 368.564,87.089 367.530 C 85.847 366.379,85.590 366.294,85.916 367.143 M99.041 375.682 C 99.459 376.083,100.249 376.541,100.797 376.701 C 101.759 376.981,101.753 376.959,100.623 376.058 C 99.169 374.898,97.913 374.599,99.041 375.682 M114.968 383.696 C 115.349 384.117,115.813 384.462,115.998 384.462 C 116.414 384.462,116.450 383.279,116.036 383.236 C 115.872 383.220,115.408 383.144,115.005 383.067 C 114.308 382.935,114.307 382.965,114.968 383.696 M131.181 390.165 C 131.267 390.425,131.950 390.676,132.700 390.723 C 133.450 390.770,133.839 390.709,133.563 390.589 C 133.288 390.469,133.147 390.233,133.251 390.066 C 133.354 389.899,132.896 389.746,132.233 389.728 C 131.470 389.706,131.084 389.867,131.181 390.165 M135.759 391.500 C 136.035 391.611,136.140 391.910,135.994 392.166 C 135.848 392.421,135.876 392.497,136.055 392.334 C 136.234 392.172,136.666 392.258,137.015 392.526 C 137.404 392.825,137.355 392.670,136.890 392.125 C 136.473 391.635,135.935 391.249,135.695 391.267 C 135.446 391.285,135.473 391.384,135.759 391.500 " stroke="none" fill="#745ce3" fill-rule="evenodd"></path>
    <path id="path1" d="M176.004 26.860 L 175.896 53.721 174.975 54.702 C 174.443 55.268,173.390 55.789,172.486 55.934 C 169.847 56.356,163.215 59.512,157.371 63.127 C 153.699 65.398,149.829 68.031,148.190 69.372 C 147.194 70.187,145.468 71.540,144.355 72.379 C 141.672 74.401,135.939 80.921,132.855 85.458 C 129.717 90.075,124.077 101.692,123.088 105.578 C 122.837 106.564,122.479 107.557,122.293 107.784 C 122.107 108.012,121.769 109.361,121.542 110.782 C 121.315 112.203,120.757 114.796,120.302 116.543 C 119.244 120.608,119.104 138.478,120.092 143.227 C 120.412 144.761,120.872 147.002,121.116 148.207 C 121.360 149.412,121.829 151.205,122.159 152.191 C 122.490 153.177,122.995 154.812,123.282 155.824 C 125.903 165.058,136.688 179.768,146.588 187.611 C 149.642 190.031,157.086 195.219,157.504 195.219 C 157.594 195.219,159.348 196.232,161.403 197.469 C 163.458 198.707,167.649 200.962,170.717 202.480 C 173.785 203.999,176.652 205.436,177.088 205.672 C 177.525 205.909,179.228 206.772,180.873 207.591 C 183.579 208.936,184.983 209.554,190.837 211.976 C 191.823 212.384,195.408 213.915,198.805 215.379 C 202.201 216.842,205.908 218.430,207.043 218.908 C 208.178 219.385,209.343 219.965,209.633 220.197 C 209.922 220.430,210.608 220.752,211.155 220.915 C 211.703 221.077,212.420 221.437,212.749 221.715 C 213.078 221.993,214.243 222.698,215.339 223.281 C 222.643 227.174,226.895 230.168,230.529 233.979 C 234.036 237.657,236.428 241.633,237.006 244.745 C 237.217 245.882,237.589 247.333,237.831 247.968 C 238.689 250.214,238.818 257.313,238.053 260.159 C 237.670 261.584,237.206 263.620,237.022 264.685 C 236.838 265.750,236.441 267.005,236.139 267.474 C 235.837 267.943,235.404 268.870,235.177 269.533 C 233.528 274.354,225.668 282.505,219.721 285.563 C 215.847 287.554,212.974 288.845,212.412 288.845 C 212.123 288.845,210.512 289.331,208.832 289.926 C 201.605 292.483,188.860 291.083,182.408 287.025 C 181.237 286.288,179.651 285.339,178.884 284.915 C 172.753 281.531,165.377 271.282,163.078 262.951 C 162.746 261.748,162.308 260.451,162.103 260.070 C 161.899 259.688,161.551 257.894,161.329 256.083 C 161.108 254.271,160.676 251.534,160.370 250.000 C 160.064 248.466,159.620 245.793,159.384 244.059 C 158.876 240.333,158.470 239.694,156.795 239.978 C 154.943 240.291,150.637 241.465,148.406 242.265 C 147.311 242.657,145.608 243.100,144.622 243.249 C 143.635 243.399,142.374 243.753,141.819 244.037 C 141.264 244.321,140.098 244.672,139.229 244.817 C 137.280 245.143,127.511 247.949,120.518 250.191 C 119.203 250.613,117.410 251.072,116.534 251.211 C 115.657 251.350,114.044 251.799,112.948 252.209 C 111.853 252.619,110.149 253.056,109.163 253.182 C 104.348 253.795,103.262 255.741,104.757 261.072 C 105.209 262.680,105.578 264.527,105.578 265.178 C 105.578 265.828,105.860 267.341,106.206 268.539 C 106.552 269.737,107.071 271.946,107.359 273.447 C 107.648 274.949,108.155 276.831,108.485 277.631 C 108.816 278.430,109.442 280.159,109.877 281.474 C 111.674 286.909,111.962 287.595,115.390 294.622 C 123.786 311.832,138.977 327.146,155.777 335.337 C 159.014 336.915,166.921 340.139,168.924 340.698 C 172.856 341.794,175.621 343.090,175.849 343.943 C 175.979 344.426,176.087 356.877,176.090 371.614 L 176.096 398.406 205.336 398.406 C 232.787 398.406,234.592 398.364,234.843 397.711 C 234.990 397.329,235.098 384.106,235.084 368.329 C 235.070 352.551,235.198 339.427,235.368 339.164 C 235.647 338.736,237.309 337.919,243.028 335.401 C 245.043 334.513,245.129 334.467,249.768 331.781 C 253.519 329.609,254.611 328.879,257.769 326.426 C 262.702 322.594,268.990 316.682,271.257 313.745 C 272.272 312.430,273.912 310.458,274.901 309.363 C 278.265 305.636,282.444 298.831,285.665 291.833 C 286.371 290.299,287.334 288.237,287.806 287.251 C 288.277 286.265,289.180 283.845,289.813 281.873 C 290.445 279.900,291.274 277.480,291.655 276.494 C 292.035 275.508,292.477 273.357,292.637 271.713 C 292.797 270.070,293.202 267.918,293.537 266.932 C 294.275 264.761,294.706 245.346,294.095 241.833 C 293.886 240.627,293.418 237.849,293.055 235.657 C 291.634 227.060,289.116 220.322,283.758 210.781 C 282.596 208.713,281.063 206.293,280.350 205.403 C 279.638 204.513,278.719 203.255,278.309 202.608 C 274.612 196.768,258.520 184.022,246.295 177.249 C 244.230 176.105,235.380 171.673,232.869 170.525 C 231.992 170.125,229.303 168.863,226.892 167.720 C 224.482 166.578,221.882 165.414,221.116 165.134 C 220.349 164.854,219.183 164.338,218.526 163.988 C 217.869 163.638,217.185 163.350,217.007 163.349 C 216.829 163.348,215.664 162.884,214.418 162.319 C 213.171 161.754,211.165 160.846,209.960 160.301 C 207.581 159.225,206.983 158.934,203.386 157.101 C 202.072 156.431,198.845 154.832,196.215 153.548 C 191.116 151.057,189.934 150.324,184.158 146.071 C 174.492 138.956,172.583 128.231,179.079 117.538 C 181.082 114.240,187.538 109.033,191.633 107.412 C 192.620 107.021,193.635 106.529,193.890 106.318 C 195.678 104.841,214.039 105.171,216.954 106.733 C 217.812 107.193,218.726 107.570,218.984 107.570 C 219.684 107.570,225.866 111.797,227.625 113.479 C 230.375 116.106,235.579 123.437,239.646 130.411 C 244.708 139.093,243.337 138.886,253.386 132.483 C 254.153 131.995,255.857 130.911,257.171 130.074 C 258.486 129.238,261.355 127.390,263.546 125.968 C 265.737 124.546,268.157 122.986,268.924 122.502 C 269.691 122.017,271.564 120.835,273.087 119.874 C 274.609 118.913,277.249 117.231,278.952 116.135 C 280.656 115.040,282.973 113.606,284.100 112.948 C 286.814 111.366,288.705 109.742,288.957 108.776 C 289.180 107.926,284.288 97.813,281.943 94.274 C 281.198 93.150,279.936 91.245,279.137 90.040 C 275.611 84.721,274.583 83.420,269.946 78.412 C 265.106 73.182,262.370 70.600,258.926 68.009 C 256.718 66.347,253.415 64.143,253.133 64.143 C 253.015 64.143,250.429 62.709,247.386 60.956 C 244.343 59.203,241.622 57.769,241.339 57.769 C 241.056 57.769,240.200 57.434,239.436 57.025 C 238.673 56.616,237.480 56.157,236.786 56.005 C 234.962 55.605,235.032 56.737,235.060 27.922 C 235.075 13.332,235.081 1.081,235.073 0.697 C 235.061 0.040,233.386 0.000,205.586 0.000 L 176.112 0.000 176.004 26.860 " stroke="none" fill="#f8fafb" fill-rule="evenodd"></path>
    <path id="path2" d="M0.000 115.936 C 0.000 192.961,0.134 231.873,0.398 231.873 C 0.618 231.873,0.797 232.500,0.797 233.267 C 0.797 234.034,0.618 234.661,0.398 234.661 C -0.701 234.661,-0.009 238.176,1.195 238.709 C 2.312 239.204,2.968 243.273,2.426 246.349 C 2.394 246.532,2.731 246.777,3.176 246.894 C 3.915 247.087,3.984 247.422,3.984 250.816 C 3.984 254.178,4.059 254.552,4.781 254.781 C 5.559 255.028,5.819 256.140,5.632 258.420 C 5.532 259.634,6.262 261.355,6.877 261.355 C 7.352 261.355,7.503 261.877,7.592 263.822 C 7.611 264.238,7.841 264.413,8.194 264.277 C 8.608 264.118,8.763 264.370,8.759 265.196 C 8.754 266.078,8.666 266.200,8.367 265.737 C 8.023 265.206,7.981 265.206,7.987 265.737 C 7.997 266.617,8.955 267.729,9.705 267.729 C 10.287 267.729,10.693 270.151,10.394 271.847 C 10.362 272.030,10.699 272.275,11.144 272.392 C 11.781 272.558,11.962 272.952,11.998 274.250 C 12.067 276.718,12.094 276.813,12.875 277.386 C 13.506 277.849,13.676 278.474,14.020 281.591 C 14.051 281.874,14.314 282.015,14.604 281.904 C 15.103 281.712,15.589 282.833,15.694 284.418 C 15.753 285.294,16.782 286.650,17.629 286.966 C 18.117 287.148,18.327 287.659,18.327 288.670 C 18.327 289.747,18.517 290.164,19.074 290.310 C 19.614 290.451,19.890 291.009,20.070 292.320 C 20.207 293.319,20.590 294.334,20.921 294.578 C 21.470 294.981,21.922 296.206,22.011 297.527 C 22.030 297.810,22.240 297.967,22.479 297.876 C 22.995 297.678,23.965 298.612,23.611 298.966 C 23.476 299.101,23.710 299.492,24.133 299.834 C 24.555 300.177,24.631 300.324,24.303 300.160 C 23.903 299.961,23.957 300.150,24.464 300.728 C 24.882 301.204,25.419 301.594,25.659 301.594 C 25.899 301.595,26.135 302.178,26.183 302.889 C 26.236 303.674,26.589 304.399,27.079 304.730 C 27.524 305.031,27.888 305.599,27.888 305.992 C 27.888 307.106,28.322 307.968,28.883 307.968 C 29.164 307.968,29.509 308.586,29.651 309.340 C 29.818 310.230,30.193 310.803,30.720 310.970 C 31.218 311.128,31.446 311.451,31.310 311.804 C 31.185 312.132,31.388 312.504,31.780 312.665 C 32.159 312.821,32.470 313.217,32.470 313.546 C 32.470 313.875,32.874 314.201,33.367 314.271 C 33.916 314.349,34.263 314.675,34.263 315.113 C 34.263 315.507,34.638 316.306,35.097 316.889 C 35.556 317.472,36.062 318.438,36.221 319.035 C 36.381 319.631,36.654 320.062,36.828 319.991 C 37.003 319.921,37.480 320.414,37.890 321.087 C 38.299 321.760,38.783 322.311,38.965 322.311 C 39.147 322.311,39.705 323.040,40.206 323.931 C 40.707 324.821,41.217 325.450,41.340 325.326 C 41.463 325.203,41.896 325.649,42.302 326.316 C 42.708 326.983,43.221 327.418,43.442 327.281 C 43.663 327.144,43.801 327.180,43.748 327.361 C 43.540 328.067,44.616 330.329,45.036 330.069 C 45.280 329.919,45.563 330.147,45.678 330.589 C 45.791 331.022,46.327 331.579,46.869 331.826 C 47.411 332.072,47.751 332.440,47.626 332.642 C 47.501 332.845,47.760 333.125,48.201 333.265 C 48.643 333.405,49.004 333.866,49.004 334.290 C 49.004 334.713,49.138 335.039,49.303 335.013 C 50.158 334.878,50.598 335.131,50.598 335.761 C 50.598 336.146,50.956 336.686,51.394 336.959 C 51.833 337.233,52.191 337.724,52.191 338.051 C 52.191 338.378,52.381 338.645,52.613 338.645 C 52.845 338.645,52.941 338.798,52.826 338.984 C 52.711 339.170,53.053 339.555,53.586 339.841 C 54.119 340.126,54.468 340.498,54.363 340.669 C 54.258 340.839,54.535 341.094,54.980 341.235 C 55.425 341.376,55.686 341.658,55.560 341.861 C 55.434 342.065,55.617 342.231,55.965 342.231 C 56.314 342.231,56.718 342.545,56.863 342.928 C 57.146 343.677,58.003 344.659,58.352 344.636 C 59.787 344.540,60.159 344.701,60.159 345.418 C 60.159 345.950,60.425 346.215,60.956 346.215 C 61.487 346.215,61.753 346.481,61.753 347.012 C 61.753 347.543,62.019 347.809,62.550 347.809 C 62.988 347.809,63.347 348.070,63.347 348.388 C 63.347 349.122,65.217 351.019,65.815 350.892 C 66.062 350.840,66.370 351.211,66.499 351.717 C 66.628 352.223,66.868 352.626,67.032 352.613 C 67.959 352.540,68.127 352.669,68.127 353.453 C 68.127 353.928,68.241 354.203,68.379 354.064 C 68.755 353.689,70.179 354.561,69.908 355.000 C 69.697 355.342,70.236 355.549,71.016 355.426 C 71.180 355.400,71.315 355.568,71.315 355.800 C 71.315 356.032,71.494 356.112,71.713 355.976 C 71.932 355.841,72.112 355.924,72.112 356.160 C 72.112 356.397,72.596 356.811,73.188 357.080 C 74.412 357.637,76.096 359.205,76.096 359.789 C 76.096 360.004,76.545 360.350,77.095 360.559 C 77.644 360.768,78.047 361.152,77.991 361.412 C 77.935 361.672,78.499 362.018,79.246 362.180 C 79.993 362.342,80.760 362.753,80.950 363.094 C 81.141 363.434,81.919 363.830,82.680 363.973 C 83.441 364.115,84.064 364.457,84.064 364.731 C 84.064 365.006,84.781 365.727,85.657 366.335 C 86.534 366.942,87.251 367.580,87.251 367.752 C 87.251 367.925,87.880 368.273,88.648 368.527 C 89.417 368.781,90.233 369.337,90.461 369.764 C 90.690 370.191,91.035 370.443,91.228 370.323 C 91.421 370.204,91.831 370.466,92.140 370.907 C 92.448 371.347,93.267 371.821,93.960 371.959 C 94.652 372.098,95.219 372.374,95.219 372.572 C 95.219 372.771,95.533 373.048,95.916 373.188 C 96.300 373.328,97.122 373.861,97.743 374.373 C 98.364 374.885,99.012 375.218,99.184 375.112 C 99.355 375.006,99.810 375.267,100.194 375.692 C 100.579 376.116,101.501 376.665,102.243 376.910 C 102.986 377.155,103.504 377.499,103.395 377.675 C 103.286 377.851,104.009 378.200,105.002 378.450 C 105.995 378.700,106.712 379.059,106.595 379.248 C 106.376 379.602,107.644 380.065,108.860 380.074 C 109.241 380.077,109.868 380.350,110.254 380.681 C 110.640 381.011,111.076 381.235,111.223 381.179 C 111.370 381.122,111.907 381.467,112.418 381.946 C 113.197 382.676,114.198 383.033,116.036 383.234 C 116.200 383.252,116.335 383.536,116.335 383.865 C 116.335 384.193,116.559 384.485,116.833 384.513 C 117.107 384.541,117.722 384.606,118.200 384.656 C 118.678 384.707,119.363 385.043,119.722 385.402 C 120.082 385.762,120.542 386.078,120.746 386.106 C 120.949 386.133,121.295 386.200,121.514 386.255 C 121.733 386.310,122.450 386.377,123.108 386.404 C 123.829 386.434,124.303 386.670,124.303 387.000 C 124.303 387.562,126.235 388.035,128.562 388.043 C 129.261 388.046,129.961 388.255,130.118 388.508 C 130.294 388.793,130.227 388.860,129.942 388.683 C 129.689 388.527,129.482 388.581,129.482 388.803 C 129.482 389.224,132.073 389.880,133.008 389.695 C 133.304 389.636,133.437 389.765,133.303 389.981 C 133.170 390.197,133.734 390.589,134.558 390.853 C 135.382 391.116,136.235 391.515,136.454 391.740 C 136.724 392.017,136.660 392.045,136.255 391.827 C 135.901 391.637,135.793 391.653,135.989 391.868 C 136.172 392.068,136.486 392.253,136.687 392.281 C 136.887 392.308,137.186 392.378,137.351 392.435 C 137.682 392.551,139.067 392.689,140.737 392.773 C 141.421 392.808,141.833 393.053,141.833 393.426 C 141.833 393.755,142.012 394.046,142.231 394.074 C 142.450 394.101,142.809 394.168,143.028 394.223 C 143.247 394.278,144.840 394.345,146.567 394.373 C 149.350 394.417,149.732 394.513,149.916 395.219 C 150.104 395.937,150.460 396.016,153.504 396.016 C 156.780 396.016,156.911 396.052,157.824 397.208 C 158.849 398.505,162.212 398.987,162.716 397.908 C 162.902 397.510,162.995 397.510,163.181 397.908 C 163.352 398.276,165.071 398.406,169.754 398.406 L 176.096 398.406 176.090 371.614 C 176.087 356.877,175.979 344.426,175.849 343.943 C 175.621 343.090,172.856 341.794,168.924 340.698 C 166.921 340.139,159.014 336.915,155.777 335.337 C 138.977 327.146,123.786 311.832,115.390 294.622 C 111.962 287.595,111.674 286.909,109.877 281.474 C 109.442 280.159,108.816 278.430,108.485 277.631 C 108.155 276.831,107.648 274.949,107.359 273.447 C 107.071 271.946,106.552 269.737,106.206 268.539 C 105.860 267.341,105.578 265.828,105.578 265.178 C 105.578 264.527,105.209 262.680,104.757 261.072 C 103.262 255.741,104.348 253.795,109.163 253.182 C 110.149 253.056,111.853 252.619,112.948 252.209 C 114.044 251.799,115.657 251.350,116.534 251.211 C 117.410 251.072,119.203 250.613,120.518 250.191 C 127.511 247.949,137.280 245.143,139.229 244.817 C 140.098 244.672,141.264 244.321,141.819 244.037 C 142.374 243.753,143.635 243.399,144.622 243.249 C 145.608 243.100,147.311 242.657,148.406 242.265 C 150.637 241.465,154.943 240.291,156.795 239.978 C 158.470 239.694,158.876 240.333,159.384 244.059 C 159.620 245.793,160.064 248.466,160.370 250.000 C 160.676 251.534,161.108 254.271,161.329 256.083 C 161.551 257.894,161.899 259.688,162.103 260.070 C 162.308 260.451,162.746 261.748,163.078 262.951 C 165.377 271.282,172.753 281.531,178.884 284.915 C 179.651 285.339,181.237 286.288,182.408 287.025 C 188.860 291.083,201.605 292.483,208.832 289.926 C 210.512 289.331,212.123 288.845,212.412 288.845 C 212.974 288.845,215.847 287.554,219.721 285.563 C 225.668 282.505,233.528 274.354,235.177 269.533 C 235.404 268.870,235.837 267.943,236.139 267.474 C 236.441 267.005,236.838 265.750,237.022 264.685 C 237.206 263.620,237.670 261.584,238.053 260.159 C 238.818 257.313,238.689 250.214,237.831 247.968 C 237.589 247.333,237.217 245.882,237.006 244.745 C 236.428 241.633,234.036 237.657,230.529 233.979 C 226.895 230.168,222.643 227.174,215.339 223.281 C 214.243 222.698,213.078 221.993,212.749 221.715 C 212.420 221.437,211.703 221.077,211.155 220.915 C 210.608 220.752,209.922 220.430,209.633 220.197 C 209.343 219.965,208.178 219.385,207.043 218.908 C 205.908 218.430,202.201 216.842,198.805 215.379 C 195.408 213.915,191.823 212.384,190.837 211.976 C 184.983 209.554,183.579 208.936,180.873 207.591 C 179.228 206.772,177.525 205.909,177.088 205.672 C 176.652 205.436,173.785 203.999,170.717 202.480 C 167.649 200.962,163.458 198.707,161.403 197.469 C 159.348 196.232,157.594 195.219,157.504 195.219 C 157.086 195.219,149.642 190.031,146.588 187.611 C 136.688 179.768,125.903 165.058,123.282 155.824 C 122.995 154.812,122.490 153.177,122.159 152.191 C 121.829 151.205,121.360 149.412,121.116 148.207 C 120.872 147.002,120.412 144.761,120.092 143.227 C 119.104 138.478,119.244 120.608,120.302 116.543 C 120.757 114.796,121.315 112.203,121.542 110.782 C 121.769 109.361,122.107 108.012,122.293 107.784 C 122.479 107.557,122.837 106.564,123.088 105.578 C 124.077 101.692,129.717 90.075,132.855 85.458 C 135.939 80.921,141.672 74.401,144.355 72.379 C 145.468 71.540,147.194 70.187,148.190 69.372 C 149.829 68.031,153.699 65.398,157.371 63.127 C 163.215 59.512,169.847 56.356,172.486 55.934 C 173.390 55.789,174.443 55.268,174.975 54.702 L 175.896 53.721 176.004 26.860 L 176.112 0.000 88.056 0.000 L 0.000 0.000 0.000 115.936 " stroke="none" fill="#2bb4ec" fill-rule="evenodd"></path>
  </g>
</svg>