<svg width="10" height="10" viewBox="0 0 10 10" fill="none" xmlns="http://www.w3.org/2000/svg">
<path d="M9.12501 0.875H0.875007C0.676094 0.875 0.485329 0.954018 0.344676 1.09467C0.204024 1.23532 0.125007 1.42609 0.125007 1.625V8.75C0.124625 8.81399 0.140833 8.87699 0.172051 8.93286C0.203268 8.98872 0.24843 9.03554 0.303132 9.06875C0.357393 9.10286 0.419492 9.12249 0.4835 9.12578C0.547509 9.12906 0.61129 9.11588 0.668757 9.0875L2.00001 8.41719L3.33126 9.0875C3.3839 9.11284 3.44158 9.126 3.50001 9.126C3.55843 9.126 3.61611 9.11284 3.66876 9.0875L5.00001 8.41719L6.33126 9.0875C6.38408 9.1122 6.44169 9.125 6.50001 9.125C6.55832 9.125 6.61593 9.1122 6.66876 9.0875L8.00001 8.41719L9.33126 9.0875C9.38872 9.11588 9.45251 9.12906 9.51651 9.12578C9.58052 9.12249 9.64262 9.10286 9.69688 9.06875C9.75158 9.03554 9.79675 8.98872 9.82796 8.93286C9.85918 8.87699 9.87539 8.81399 9.87501 8.75V1.625C9.87501 1.42609 9.79599 1.23532 9.65534 1.09467C9.51468 0.954018 9.32392 0.875 9.12501 0.875ZM7.43751 5.75H2.56251C2.46305 5.75 2.36767 5.71049 2.29734 5.64017C2.22702 5.56984 2.18751 5.47446 2.18751 5.375C2.18751 5.27554 2.22702 5.18016 2.29734 5.10983C2.36767 5.03951 2.46305 5 2.56251 5H7.43751C7.53696 5 7.63235 5.03951 7.70267 5.10983C7.773 5.18016 7.81251 5.27554 7.81251 5.375C7.81251 5.47446 7.773 5.56984 7.70267 5.64017C7.63235 5.71049 7.53696 5.75 7.43751 5.75ZM7.43751 4.25H2.56251C2.46305 4.25 2.36767 4.21049 2.29734 4.14016C2.22702 4.06984 2.18751 3.97446 2.18751 3.875C2.18751 3.77554 2.22702 3.68016 2.29734 3.60984C2.36767 3.53951 2.46305 3.5 2.56251 3.5H7.43751C7.53696 3.5 7.63235 3.53951 7.70267 3.60984C7.773 3.68016 7.81251 3.77554 7.81251 3.875C7.81251 3.97446 7.773 4.06984 7.70267 4.14016C7.63235 4.21049 7.53696 4.25 7.43751 4.25Z"/>
</svg>
